<svg width="244" height="202" viewBox="0 0 244 202" fill="none" xmlns="http://www.w3.org/2000/svg">
<path d="M12.6838 119.006C20.0393 119.431 30.3521 114.456 42.9322 107.594C46.5594 115.114 52.4626 130.646 47.0574 132.618C40.301 135.082 26.8791 133.611 12.6838 119.006Z" fill="#99BB66"/>
<path d="M77.0998 189.354C76.7492 181.995 81.8271 171.732 88.8158 159.222C81.3329 155.519 65.8606 149.46 63.8348 154.845C61.3025 161.577 62.6385 175.012 77.0998 189.354Z" fill="#99BB66"/>
<path d="M105.317 154.57C114.432 143.817 123.2 123.698 103.846 100.458C84.4924 77.218 60.5397 84.7991 47.2696 95.1726C34.1561 105.424 27.7057 120.5 50.3637 147.708C73.719 175.753 95.9479 165.623 105.317 154.57Z" fill="#99BB66"/>
<path d="M100.694 99.1917L96.2651 78.8665" stroke="#99BB66" stroke-width="4" stroke-linecap="round"/>
<path d="M95.8326 93.934L84.969 76.1938" stroke="#99BB66" stroke-width="4" stroke-linecap="round"/>
<path d="M106.008 108.65L123.046 122.016" stroke="#99BB66" stroke-width="4" stroke-linecap="round"/>
<path d="M101.944 106.143L123.105 110.738" stroke="#99BB66" stroke-width="4" stroke-linecap="round"/>
<path fill-rule="evenodd" clip-rule="evenodd" d="M198.499 15.2178C198.327 14.7324 198.127 14.2514 197.898 13.7768C194.463 6.65728 185.908 3.6697 178.788 7.10384C174.874 8.9919 172.209 12.428 171.173 16.3224C166.612 16.0049 161.909 16.835 157.495 18.9636C143.968 25.4885 138.292 41.7438 144.817 55.2709C151.342 68.798 167.597 74.4744 181.124 67.9496C185.86 65.6653 189.633 62.1884 192.258 58.0534C195.678 59.2039 199.533 59.0703 203.039 57.3789C203.514 57.1499 203.97 56.8982 204.407 56.6256C199.701 58.187 194.453 56.0502 192.241 51.4642C189.837 46.4805 191.928 40.4917 196.912 38.0878C201.896 35.6839 207.884 37.7752 210.288 42.7589C210.682 43.575 210.955 44.4181 211.115 45.268C211.244 42.9303 210.801 40.5278 209.712 38.2698C206.958 32.56 200.91 29.5079 194.95 30.2945C195.593 29.6743 196.17 28.9999 196.679 28.2823C196.025 28.848 195.286 29.3378 194.47 29.7314C189.486 32.1353 183.498 30.044 181.094 25.0603C178.69 20.0767 180.781 14.0879 185.765 11.684C190.351 9.47193 195.788 11.0662 198.499 15.2178Z" fill="#99BB66"/>
<path fill-rule="evenodd" clip-rule="evenodd" d="M198.499 15.2178C198.327 14.7324 198.127 14.2514 197.898 13.7768C194.463 6.65728 185.908 3.6697 178.788 7.10384C174.874 8.9919 172.209 12.428 171.173 16.3224C166.612 16.0049 161.909 16.835 157.495 18.9636C143.968 25.4885 138.292 41.7438 144.817 55.2709C151.342 68.798 167.597 74.4744 181.124 67.9496C185.86 65.6653 189.633 62.1884 192.258 58.0534C195.678 59.2039 199.533 59.0703 203.039 57.3789C203.514 57.1499 203.97 56.8982 204.407 56.6256C199.701 58.187 194.453 56.0502 192.241 51.4642C189.837 46.4805 191.928 40.4917 196.912 38.0878C201.896 35.6839 207.884 37.7752 210.288 42.7589C210.682 43.575 210.955 44.4181 211.115 45.268C211.244 42.9303 210.801 40.5278 209.712 38.2698C206.958 32.56 200.91 29.5079 194.95 30.2945C195.593 29.6743 196.17 28.9999 196.679 28.2823C196.025 28.848 195.286 29.3378 194.47 29.7314C189.486 32.1353 183.498 30.044 181.094 25.0603C178.69 20.0767 180.781 14.0879 185.765 11.684C190.351 9.47193 195.788 11.0662 198.499 15.2178Z" fill="#99BB66"/>
<path fill-rule="evenodd" clip-rule="evenodd" d="M198.499 15.2178C198.327 14.7324 198.127 14.2514 197.898 13.7768C194.463 6.65728 185.908 3.6697 178.788 7.10384C174.874 8.9919 172.209 12.428 171.173 16.3224C166.612 16.0049 161.909 16.835 157.495 18.9636C143.968 25.4885 138.292 41.7438 144.817 55.2709C151.342 68.798 167.597 74.4744 181.124 67.9496C185.86 65.6653 189.633 62.1884 192.258 58.0534C195.678 59.2039 199.533 59.0703 203.039 57.3789C203.514 57.1499 203.97 56.8982 204.407 56.6256C199.701 58.187 194.453 56.0502 192.241 51.4642C189.837 46.4805 191.928 40.4917 196.912 38.0878C201.896 35.6839 207.884 37.7752 210.288 42.7589C210.682 43.575 210.955 44.4181 211.115 45.268C211.244 42.9303 210.801 40.5278 209.712 38.2698C206.958 32.56 200.91 29.5079 194.95 30.2945C195.593 29.6743 196.17 28.9999 196.679 28.2823C196.025 28.848 195.286 29.3378 194.47 29.7314C189.486 32.1353 183.498 30.044 181.094 25.0603C178.69 20.0767 180.781 14.0879 185.765 11.684C190.351 9.47193 195.788 11.0662 198.499 15.2178Z" fill="#99BB66"/>
<path fill-rule="evenodd" clip-rule="evenodd" d="M198.499 15.2178C198.327 14.7324 198.127 14.2514 197.898 13.7768C194.463 6.65728 185.908 3.6697 178.788 7.10384C174.874 8.9919 172.209 12.428 171.173 16.3224C166.612 16.0049 161.909 16.835 157.495 18.9636C143.968 25.4885 138.292 41.7438 144.817 55.2709C151.342 68.798 167.597 74.4744 181.124 67.9496C185.86 65.6653 189.633 62.1884 192.258 58.0534C195.678 59.2039 199.533 59.0703 203.039 57.3789C203.514 57.1499 203.97 56.8982 204.407 56.6256C199.701 58.187 194.453 56.0502 192.241 51.4642C189.837 46.4805 191.928 40.4917 196.912 38.0878C201.896 35.6839 207.884 37.7752 210.288 42.7589C210.682 43.575 210.955 44.4181 211.115 45.268C211.244 42.9303 210.801 40.5278 209.712 38.2698C206.958 32.56 200.91 29.5079 194.95 30.2945C195.593 29.6743 196.17 28.9999 196.679 28.2823C196.025 28.848 195.286 29.3378 194.47 29.7314C189.486 32.1353 183.498 30.044 181.094 25.0603C178.69 20.0767 180.781 14.0879 185.765 11.684C190.351 9.47193 195.788 11.0662 198.499 15.2178Z" fill="#99BB66"/>
<path d="M121.791 81.0724C120.851 80.4924 119.619 80.7842 119.039 81.7243C118.459 82.6643 118.751 83.8965 119.691 84.4766L121.791 81.0724ZM146.578 38.3325C146.47 45.9341 146.303 53.4471 145.712 60.2091C145.12 66.9967 144.112 72.8737 142.392 77.2571C140.668 81.6521 138.391 84.1579 135.479 84.9529C132.487 85.7697 128.131 84.984 121.791 81.0724L119.691 84.4766C126.36 88.5915 131.933 90.0674 136.533 88.8117C141.212 87.5341 144.187 83.6332 146.116 78.7182C148.049 73.7916 149.095 67.4553 149.697 60.557C150.302 53.6333 150.47 45.9878 150.578 38.3894L146.578 38.3325Z" fill="#99BB66"/>
</svg>
